<svg width="135" height="216" viewBox="0 0 135 216" fill="none" xmlns="http://www.w3.org/2000/svg">
<path d="M0 27C0 19.8392 2.84463 12.9716 7.90812 7.90812C12.9716 2.84464 19.8392 0 27 0L108 0C115.161 0 122.028 2.84464 127.092 7.90812C132.155 12.9716 135 19.8392 135 27V189C135 196.161 132.155 203.028 127.092 208.092C122.028 213.155 115.161 216 108 216H27C19.8392 216 12.9716 213.155 7.90812 208.092C2.84463 203.028 0 196.161 0 189V27ZM81 175.5C81 171.92 79.5777 168.486 77.0459 165.954C74.5142 163.422 71.0804 162 67.5 162C63.9196 162 60.4858 163.422 57.9541 165.954C55.4223 168.486 54 171.92 54 175.5C54 179.08 55.4223 182.514 57.9541 185.046C60.4858 187.578 63.9196 189 67.5 189C71.0804 189 74.5142 187.578 77.0459 185.046C79.5777 182.514 81 179.08 81 175.5Z" fill="#454EFF"/>
</svg>
